<svg xmlns="http://www.w3.org/2000/svg" viewBox="0 0 292 157" width="292" height="157" version="1.1">
 <path fill="#333" d="m259.9 56.39c12.3-2.7 24.5-6.07 30.7-16.1l1.04 3.04c-3.47 5.16-12.8 14.9-26.4 19.8zm7.06-10.5-2.7 2.55-5.07-5.91 2.91-2.42zm20.5-3.59-12.5 1.05c-3.79-2.39-10.7-8.69-24.8-7.66 0 0 3.07-2.05 15.8-2.55 0 0 12.7 8.37 21.5 9.16zm-26.2 62.6c3.68-12.7 2.15-19.7-3.55-27.8l-5.35 5.07c2.18 3.97 2.59 9.25 3.35 12.6l-7.32-0.0424c2.87-6.39 3.38-7.55-1.42-12.1 4.66-2.46 7.76-4.93 10.6-9.16 12.8 4.88 15.4 24.1 15.2 28.1zm-40.3-19.2c26.3-7.77 31.3-11.7 31.4-34l5.28 1.54c0.9 18.6-12.3 33.3-29.8 39.1zm1.2-16.2c-33-35.1-54.9-45-116.1-51.32 92.87-10.42 127.4 26.11 116.1 51.32zm13.8-4.3c-0.9-26.2-7.5-48.4-15.7-65.1 20.09 18.86 40.65 31.08 15.7 65.1zm-10.98 27.86c-6.63 1.33-17.8-4.29-17.8-4.29-0.00002 7.09-7.63 36.4-14 40l-13.4-23.5c15.8-4.24 19.3-13.4 19.2-19.2l-18.5-10.1 3.18-1.93 16.4 5.83 2.18-9.66c-4.55-0.922-10.5-1.39-15-1.18l-6.49-2.66c22.6-1.97 20.7 1.72 32.4 0.095l3.26 5.13c-3.07 1.27-7.48-0.429-10.8-0.779l0.881 11.4s8.94 3.34 12.6 3.82zm-59.5-23.36c-21.5 0.75-37.8 16.9-37.8 16.9 7.52-15.8 3.51-20.7 3.51-20.7 10.3-4.38 35.1-0.972 35.1-0.972-16.6-11.9-68.9-1.79-68.9-1.79 28.73-10.49 63.93-21.71 77.9 3.9l7.63 2.81c-35.2 48.8-112 91.6-158 86.6-67.3-10.1 24.8-68.4 24.8-68.4-65.5 117 123-4.09 123-14z"/>
</svg>
